<svg width="798" height="813" viewBox="0 0 798 813" fill="none" xmlns="http://www.w3.org/2000/svg">
<path d="M21.0879 140.972H117.874V347.803H21.0879V140.972ZM105.115 228.806H232.347V390.283H105.115V228.806ZM645.97 216.307V171.027H534.009V354.936H640.873V437H813.088V216.307H645.97ZM318.152 333.611H415.13V122H318.152V333.611Z" fill="#4A9FF4"/>
<path d="M785.859 207.736V336.349H736.936V194.132L673.334 177.774V256.322H605.966V109H507.206V220.34H464.762V151.864H359.396V239.081H293.932V127.092L179.949 147.907V300.335H145.909V207.736H50.202V252.77H2.08789V490H867.088V279.062V207.736H785.859Z" fill="#4391EF"/>
<path d="M282.334 154.849H271.129V162.367H282.334V154.849Z" fill="#53A7F4"/>
<path d="M282.334 169.331H271.129V176.849H282.334V169.331Z" fill="#53A7F4"/>
<path d="M282.334 198.295H271.129V205.812H282.334V198.295Z" fill="#53A7F4"/>
<path d="M262.944 140.367H251.739V147.884H262.944V140.367Z" fill="#53A7F4"/>
<path d="M262.944 154.849H251.739V162.367H262.944V154.849Z" fill="#53A7F4"/>
<path d="M262.944 183.813H251.739V191.331H262.944V183.813Z" fill="#53A7F4"/>
<path d="M724.635 203.941H713.43V211.459H724.635V203.941Z" fill="#53A7F4"/>
<path d="M724.635 232.299H713.43V239.817H724.635V232.299Z" fill="#53A7F4"/>
<path d="M724.635 246.473H713.43V253.99H724.635V246.473Z" fill="#53A7F4"/>
<path d="M724.635 260.647H713.43V268.164H724.635V260.647Z" fill="#53A7F4"/>
<path d="M724.635 289.004H713.43V296.522H724.635V289.004Z" fill="#53A7F4"/>
<path d="M702.48 203.941H691.275V211.459H702.48V203.941Z" fill="#53A7F4"/>
<path d="M702.48 218.115H691.275V225.632H702.48V218.115Z" fill="#53A7F4"/>
<path d="M702.48 260.647H691.275V268.164H702.48V260.647Z" fill="#53A7F4"/>
<path d="M262.944 198.295H251.739V205.812H262.944V198.295Z" fill="#53A7F4"/>
<path d="M262.944 212.777H251.739V220.295H262.944V212.777Z" fill="#53A7F4"/>
<path d="M243.542 154.849H232.337V162.367H243.542V154.849Z" fill="#53A7F4"/>
<path d="M243.542 183.813H232.337V191.331H243.542V183.813Z" fill="#53A7F4"/>
<path d="M243.542 198.295H232.337V205.812H243.542V198.295Z" fill="#53A7F4"/>
<path d="M572.241 122.025H560.557V132.127H572.241V122.025Z" fill="#53A7F4"/>
<path d="M572.241 141.484H560.557V151.585H572.241V141.484Z" fill="#53A7F4"/>
<path d="M572.241 160.931H560.557V171.032H572.241V160.931Z" fill="#53A7F4"/>
<path d="M572.241 180.389H560.557V190.491H572.241V180.389Z" fill="#53A7F4"/>
<path d="M572.241 199.837H560.557V209.938H572.241V199.837Z" fill="#53A7F4"/>
<path d="M551.999 122.025H540.316V132.127H551.999V122.025Z" fill="#53A7F4"/>
<path d="M551.999 141.484H540.316V151.585H551.999V141.484Z" fill="#53A7F4"/>
<path d="M551.999 199.837H540.316V209.938H551.999V199.837Z" fill="#53A7F4"/>
<path d="M531.758 122.025H520.075V132.127H531.758V122.025Z" fill="#53A7F4"/>
<path d="M531.758 160.931H520.075V171.032H531.758V160.931Z" fill="#53A7F4"/>
<path d="M531.758 180.389H520.075V190.491H531.758V180.389Z" fill="#53A7F4"/>
<path d="M531.758 199.837H520.075V209.938H531.758V199.837Z" fill="#53A7F4"/>
<path d="M373.973 162.25H367.233V264.198H373.973V162.25Z" fill="#53A7F4"/>
<path d="M389.888 162.25H383.137V264.198H389.888V162.25Z" fill="#53A7F4"/>
<path d="M127.596 222.565V218.036H82.8607V222.565H127.596Z" fill="#53A7F4"/>
<path d="M127.6 233.245V228.715H82.8646V233.245H127.6Z" fill="#53A7F4"/>
<path d="M127.595 261.704V257.174H82.8597V261.704H127.595Z" fill="#53A7F4"/>
<path d="M127.603 250.228V245.699H82.8675V250.228H127.603Z" fill="#53A7F4"/>
<path d="M127.599 272.383V267.854H82.8636V272.383H127.599Z" fill="#53A7F4"/>
<path d="M405.77 162.25H399.03V264.198H405.77V162.25Z" fill="#53A7F4"/>
<path d="M421.675 162.25H414.935V264.198H421.675V162.25Z" fill="#53A7F4"/>
<path d="M437.578 162.25H430.838V264.198H437.578V162.25Z" fill="#53A7F4"/>
<path d="M453.482 162.25H446.742V264.198H453.482V162.25Z" fill="#53A7F4"/>
<path d="M860.088 395.574C849.948 385.03 835.844 388.175 825.885 399.124C815.916 410.073 809.464 427.397 804.798 445.137C806.488 436.512 803.374 425.606 797.783 423.815C792.193 422.034 786.4 432.802 789.302 440.584C784.71 424.444 779.97 408.047 772.509 394.859C766.971 385.062 759.669 377.087 751.485 374.177C747.744 372.844 744.545 371.736 741.548 376.192C738.848 380.2 737.551 386.49 736.978 392.119C735.043 410.904 737.849 430.808 744.641 446.512C742.026 441.437 738.338 437.77 734.32 436.224C733.173 435.787 731.971 435.52 730.824 435.979C728.464 436.928 726.965 440.819 726.7 444.646C726.434 448.473 727.157 452.29 727.869 455.968C725.849 450.552 723.129 445.819 719.908 442.141C718.186 440.179 715.306 438.911 714.349 441.896C713.967 443.1 714.105 444.529 714.254 445.862C714.721 450.019 715.189 454.177 715.657 458.324C705.443 445.105 692.433 437.429 679.254 436.864C677.213 436.778 675.088 436.885 673.281 438.367C670.411 440.723 668.965 446.139 668.934 451.256C668.902 456.373 670.018 461.32 671.123 466.128C656.647 449.572 637.346 444.092 620.138 451.65C614.356 454.188 608.627 458.335 604.769 465.606C603.44 468.111 602.324 471.075 602.123 474.337C601.708 480.926 605.077 486.704 608.776 489.774C614.749 494.721 621.764 495.03 628.503 494.998C674.535 494.785 720.354 483.9 766.429 486.405C773.635 486.8 781.936 489.849 789.047 488.09C795.573 486.48 801.769 485.393 808.465 484.955C824.918 483.879 841.371 482.717 857.813 481.469" fill="#3A84EF"/>
<path d="M2.08789 395.574C12.2275 385.03 26.3316 388.175 36.2905 399.124C46.2601 410.073 52.7116 427.397 57.3775 445.137C55.6876 436.512 58.8018 425.606 64.3924 423.815C69.983 422.034 75.7756 432.802 72.874 440.584C77.4655 424.444 82.2058 408.047 89.6671 394.859C95.2045 385.062 102.506 377.087 110.69 374.177C114.432 372.844 117.631 371.736 120.628 376.192C123.328 380.2 124.624 386.49 125.198 392.119C127.133 410.904 124.327 430.808 117.535 446.512C120.15 441.437 123.838 437.77 127.855 436.224C129.003 435.787 130.204 435.52 131.352 435.979C133.712 436.928 135.21 440.819 135.476 444.646C135.742 448.473 135.019 452.29 134.307 455.968C136.326 450.552 139.047 445.819 142.268 442.141C143.99 440.179 146.87 438.911 147.826 441.896C148.209 443.1 148.071 444.529 147.922 445.862C147.454 450.019 146.987 454.177 146.519 458.324C156.733 445.105 169.742 437.429 182.922 436.864C184.963 436.778 187.088 436.885 188.895 438.367C191.765 440.723 193.21 446.139 193.242 451.256C193.274 456.373 192.158 461.32 191.053 466.128C205.529 449.572 224.83 444.092 242.038 451.65C247.82 454.188 253.549 458.335 257.407 465.606C258.735 468.111 259.851 471.075 260.053 474.337C260.468 480.926 257.098 486.704 253.4 489.774C247.427 494.721 240.412 495.03 233.673 494.998C187.641 494.785 141.821 483.9 95.7466 486.405C88.5405 486.8 80.2395 489.849 73.129 488.09C66.6031 486.48 60.4067 485.393 53.7107 484.955C37.2577 483.879 20.8047 482.717 4.36235 481.469" fill="#3A84EF"/>
<path d="M865.088 488H0.0878906V813H865.088V488Z" fill="#2C2AA1"/>
<path d="M914.739 521.272C919.201 503.406 919.392 500.923 914.176 483.215C911.658 474.668 907.855 466.131 900.896 459.75C873.083 434.245 830.674 442.232 813.389 465.772C800.417 483.427 795.987 505.762 801.405 526.227C798.101 521.843 793.267 517.891 787.318 517.289C778.607 516.401 770.851 523.279 768.78 530.76C766.708 538.24 768.833 546.069 770.947 553.539C765.529 542.931 752.855 535.144 739.618 535.504C726.381 535.874 713.792 545.171 712.389 556.73C711.253 566.101 714.918 575.219 722.227 583.133C707.874 573.307 689.272 568.69 671.084 569.429C652.897 570.169 637.344 574.786 622.46 583.988C612.824 589.947 599.236 607.634 601.297 617.808C603.295 627.666 617.105 626.282 627.963 629.346C641.285 633.107 654.278 633.815 668.099 634.375C680.285 634.861 692.672 637.925 704.995 639.119C734.997 642.014 765.348 643.208 795.424 640.419C824.586 637.714 855.065 630.392 874.751 611.332C894.341 592.356 899.547 562.932 887.425 539.635" fill="#33E5C5"/>
<path d="M684 294L513.5 385.5V405.5L678 527L684 294Z" fill="url(#paint0_linear_1_60)"/>
<ellipse cx="435" cy="591" rx="178" ry="5" fill="#1F1F1F" fill-opacity="0.09"/>
<path d="M472.457 389.616H484.463C486.702 389.616 488.508 391.436 488.508 393.671V401.195C488.508 403.44 486.693 405.25 484.463 405.25H474.746V402.258C471.821 402.258 469.006 401.093 466.937 399.019L465.479 397.557L472.457 389.616Z" fill="#BE653B"/>
<path d="M472.457 389.616L465.479 397.548L435.506 390.568L439.652 379.448L472.457 389.616Z" fill="#BE653B"/>
<path d="M439.652 379.448L441.119 379.899L441.585 391.98L435.506 390.568L439.652 379.448Z" fill="#9A4C28"/>
<path d="M382.259 336.439C386.21 333.328 391.908 333.889 395.189 337.698L426.281 373.863L431.902 375.759L426.679 389.761L423.729 389.123C419.065 388.111 414.809 385.714 411.519 382.245L381.25 350.356C377.426 346.335 377.892 339.874 382.259 336.439Z" fill="#F48116"/>
<path d="M426.51 390.211L426.68 389.769L431.903 375.767L432.42 374.382C432.717 373.591 433.598 373.183 434.387 373.48L439.525 375.41C440.314 375.708 440.721 376.592 440.424 377.383L440.008 378.505L435.125 391.597L434.523 393.212C434.226 394.003 433.344 394.411 432.556 394.114L427.417 392.184C426.62 391.886 426.213 391.002 426.51 390.211Z" fill="#E4E4E5"/>
<path d="M393.222 339.211C390.33 335.844 385.497 334.943 381.597 337.026C381.809 336.822 382.03 336.626 382.267 336.439C386.218 333.328 391.916 333.889 395.197 337.698L426.289 373.863L431.911 375.759L431.072 378.003L424.763 375.869L393.222 339.211Z" fill="#FF9C1A"/>
<path d="M393.078 411.695L457.882 428.987C469.083 431.979 474.314 444.893 468.345 454.865L430.572 518.023L409.535 508.663L439.763 451.031L378.206 438.134C366.302 435.635 359.281 423.223 363.275 411.703H393.078V411.695Z" fill="#0044CC"/>
<path d="M412.266 512.973L413.843 510.576L425.798 515.889L422.983 521.024L409.663 517.275C410.477 515.813 411.341 514.376 412.266 512.973Z" fill="#C15F32"/>
<path d="M415.555 523.311L416.666 526.15L415.182 525.105C414.597 524.688 413.894 524.467 413.173 524.467H406.195C407.212 522.002 408.365 519.604 409.671 517.275L422.991 521.024L422.177 522.495H416.107C415.683 522.495 415.394 522.92 415.555 523.311Z" fill="white"/>
<path d="M430.869 535.553H402.634L403.151 533.555C403.948 530.452 404.974 527.426 406.195 524.476H413.173C413.894 524.476 414.598 524.697 415.183 525.113L416.666 526.159L415.556 523.319C415.403 522.928 415.691 522.503 416.115 522.503H422.186L426.671 526.729C428.706 528.641 431.386 529.713 434.175 529.713H437.236C440.229 529.713 442.841 531.387 444.189 533.861L438.364 534.898C435.88 535.332 433.378 535.553 430.869 535.553Z" fill="#422C4F"/>
<path d="M430.868 535.553C433.378 535.553 435.879 535.332 438.355 534.89L444.18 533.853C444.748 534.898 445.096 536.097 445.147 537.364L436.252 538.172C434.845 538.299 433.437 538.367 432.021 538.367H401.921L402.642 535.553H430.868Z" fill="white"/>
<path d="M413.843 510.576L425.798 515.889L424.501 518.244L411.494 514.18L413.843 510.576Z" fill="#9A4C28"/>
<path d="M493.069 405.871H496.13L504.007 433.799C510.171 455.664 507.67 479.044 497.08 499.082L493.239 500.535L493.069 405.871Z" fill="#077AED"/>
<path d="M504.007 433.807L496.13 405.88H498.996L515.157 466.028C516.615 471.443 521.508 475.209 527.104 475.209C527.528 475.209 527.867 475.549 527.867 475.975V487.452L497.072 499.09C507.67 479.052 510.171 455.664 504.007 433.807Z" fill="#056CE5"/>
<path d="M529.978 590.991C553.738 590.991 573 571.679 573 547.855C573 524.031 553.738 504.718 529.978 504.718C506.218 504.718 486.956 524.031 486.956 547.855C486.956 571.679 506.218 590.991 529.978 590.991Z" fill="#121212"/>
<path d="M529.978 578.919C547.089 578.919 560.96 565.011 560.96 547.855C560.96 530.698 547.089 516.79 529.978 516.79C512.867 516.79 498.996 530.698 498.996 547.855C498.996 565.011 512.867 578.919 529.978 578.919Z" fill="#001B66"/>
<path d="M529.978 573.215C543.947 573.215 555.271 561.861 555.271 547.855C555.271 533.849 543.947 522.495 529.978 522.495C516.009 522.495 504.686 533.849 504.686 547.855C504.686 561.861 516.009 573.215 529.978 573.215Z" fill="#649FCB"/>
<path d="M529.978 522.495C534.752 522.495 539.22 523.821 543.036 526.133C541.28 525.691 539.432 525.445 537.541 525.445C525.196 525.445 515.191 535.477 515.191 547.855C515.191 560.233 525.196 570.265 537.541 570.265C539.441 570.265 541.28 570.027 543.036 569.576C539.229 571.88 534.76 573.215 529.978 573.215C516.005 573.215 504.686 561.857 504.686 547.855C504.677 533.853 516.005 522.495 529.978 522.495Z" fill="#171819" fill-opacity="0.1"/>
<path d="M529.978 559.043C536.141 559.043 541.136 554.034 541.136 547.855C541.136 541.676 536.141 536.667 529.978 536.667C523.816 536.667 518.82 541.676 518.82 547.855C518.82 554.034 523.816 559.043 529.978 559.043Z" fill="#00308D"/>
<path d="M535.313 553.211C538.264 550.253 538.264 545.456 535.313 542.498C532.363 539.54 527.58 539.54 524.63 542.498C521.679 545.456 521.679 550.253 524.63 553.211C527.58 556.169 532.363 556.169 535.313 553.211Z" fill="#8695B8"/>
<path d="M308.976 590.991C332.736 590.991 351.998 571.679 351.998 547.855C351.998 524.031 332.736 504.718 308.976 504.718C285.216 504.718 265.954 524.031 265.954 547.855C265.954 571.679 285.216 590.991 308.976 590.991Z" fill="#121212"/>
<path d="M308.976 578.919C326.087 578.919 339.958 565.011 339.958 547.855C339.958 530.698 326.087 516.79 308.976 516.79C291.865 516.79 277.994 530.698 277.994 547.855C277.994 565.011 291.865 578.919 308.976 578.919Z" fill="#001B66"/>
<path d="M308.976 573.215C322.945 573.215 334.269 561.861 334.269 547.855C334.269 533.849 322.945 522.495 308.976 522.495C295.007 522.495 283.684 533.849 283.684 547.855C283.684 561.861 295.007 573.215 308.976 573.215Z" fill="#649FCB"/>
<path d="M308.976 522.495C313.75 522.495 318.218 523.821 322.034 526.133C320.278 525.691 318.43 525.445 316.539 525.445C304.194 525.445 294.189 535.477 294.189 547.855C294.189 560.233 304.194 570.265 316.539 570.265C318.439 570.265 320.278 570.027 322.034 569.576C318.227 571.88 313.758 573.215 308.976 573.215C295.003 573.215 283.684 561.857 283.684 547.855C283.675 533.853 295.003 522.495 308.976 522.495Z" fill="#171819" fill-opacity="0.1"/>
<path d="M308.976 559.043C315.139 559.043 320.134 554.034 320.134 547.855C320.134 541.676 315.139 536.667 308.976 536.667C302.814 536.667 297.818 541.676 297.818 547.855C297.818 554.034 302.814 559.043 308.976 559.043Z" fill="#00308D"/>
<path d="M314.313 553.209C317.263 550.251 317.263 545.455 314.313 542.497C311.363 539.539 306.579 539.539 303.629 542.497C300.679 545.455 300.679 550.251 303.629 553.209C306.579 556.167 311.363 556.167 314.313 553.209Z" fill="#8695B8"/>
<path d="M527.901 490.725C505.737 491.422 486.786 506.98 480.894 528.403L479.935 531.889L478.893 532.399L480.894 525.139C486.786 503.707 505.745 488.157 527.901 487.46C528.469 487.443 529.045 487.435 529.622 487.435C539.161 487.435 548.309 489.926 556.356 494.584L554.889 497.033C547.207 492.901 538.584 490.699 529.622 490.699C529.045 490.691 528.477 490.699 527.901 490.725Z" fill="white"/>
<path d="M523.856 510.244L479.936 531.889L480.894 528.403C486.786 506.971 505.745 491.422 527.901 490.725C528.469 490.708 529.045 490.699 529.622 490.699C538.584 490.699 547.207 492.901 554.889 497.033L547.004 510.244H523.856Z" fill="#337AE2"/>
<path d="M476.815 535.664H497.343C506.568 535.664 515.42 531.991 521.949 525.445C528.477 518.899 537.329 515.226 546.554 515.226H570.897L563.198 507.507C554.296 498.58 542.222 493.564 529.63 493.564C513.41 493.564 498.318 501.862 489.593 515.575L476.815 535.664Z" fill="#0057D8"/>
<path d="M493.07 405.871L500.947 433.799C507.263 456.192 504.491 480.183 493.239 500.535L489.305 507.651C478.172 527.783 457.026 540.28 434.065 540.28H240.271L247.216 515.013C254.067 490.087 270.049 468.68 291.976 455.078L304.525 447.29H412.334V452.009C412.334 455.146 410.341 457.934 407.373 458.929C395.842 462.823 387.558 473.016 386.083 485.131C383.777 504.03 398.488 520.692 417.48 520.692H433.243C448.352 520.692 462.418 512.948 470.516 500.153L477.825 488.616C485.888 475.89 488.644 460.502 485.506 445.76L477.019 405.871H493.07Z" fill="#04286C"/>
<path d="M304.524 447.291H421.041V433.425H328.13C321.669 433.425 315.479 436.043 310.968 440.676L304.524 447.291Z" fill="#FEFFFD"/>
<path d="M372.271 542.193H424.585C448.233 542.193 470.041 529.313 481.496 508.578L485.43 501.462C497.004 480.523 499.802 456.311 493.307 433.28C491.221 425.867 492.188 417.773 495.969 411.074C496.486 410.156 496.164 408.983 495.248 408.464C494.324 407.945 493.163 408.269 492.645 409.187C488.364 416.779 487.27 425.935 489.635 434.326C495.85 456.379 493.18 479.562 482.098 499.609L478.163 506.725C467.378 526.244 446.851 538.367 424.594 538.367H372.279C371.219 538.367 370.363 539.226 370.363 540.288C370.354 541.343 371.211 542.193 372.271 542.193Z" fill="#FAFDFF"/>
<path d="M370.371 532.773H250.505L252.337 534.61C255.271 537.551 259.247 539.2 263.393 539.2H357.746C362.74 539.2 367.429 536.811 370.371 532.773Z" fill="#056CE5"/>
<path d="M318.023 552.522C332.343 552.522 343.951 540.883 343.951 526.525C343.951 512.166 332.343 500.527 318.023 500.527C303.703 500.527 292.094 512.166 292.094 526.525C292.094 540.883 303.703 552.522 318.023 552.522Z" fill="#FAFDFF"/>
<path d="M298.081 526.525C298.081 515.498 307.026 506.529 318.023 506.529C329.02 506.529 337.965 515.498 337.965 526.525C337.965 537.551 329.02 546.52 318.023 546.52C307.026 546.52 298.081 537.551 298.081 526.525ZM300.2 526.525C300.2 536.378 308.196 544.395 318.023 544.395C327.85 544.395 335.846 536.378 335.846 526.525C335.846 516.671 327.85 508.654 318.023 508.654C308.196 508.663 300.2 516.671 300.2 526.525Z" fill="#01328E"/>
<path d="M305.075 527.587H330.97C331.555 527.587 332.03 527.111 332.03 526.525C332.03 525.938 331.555 525.462 330.97 525.462H305.075C304.49 525.462 304.016 525.938 304.016 526.525C304.016 527.111 304.49 527.587 305.075 527.587Z" fill="#495375"/>
<path d="M307.305 523.337H328.749C329.334 523.337 329.808 522.86 329.808 522.274C329.808 521.687 329.334 521.211 328.749 521.211H307.305C306.72 521.211 306.246 521.687 306.246 522.274C306.246 522.86 306.72 523.337 307.305 523.337Z" fill="#495375"/>
<path d="M310.299 519.086H325.747C326.332 519.086 326.807 518.61 326.807 518.023C326.807 517.436 326.332 516.96 325.747 516.96H310.299C309.714 516.96 309.239 517.436 309.239 518.023C309.239 518.601 309.714 519.086 310.299 519.086Z" fill="#495375"/>
<path d="M313.86 514.827H322.186C322.771 514.827 323.246 514.35 323.246 513.764C323.246 513.177 322.771 512.701 322.186 512.701H313.86C313.275 512.701 312.8 513.177 312.8 513.764C312.8 514.35 313.275 514.827 313.86 514.827Z" fill="#495375"/>
<path d="M307.305 531.847H328.749C329.334 531.847 329.808 531.37 329.808 530.784C329.808 530.197 329.334 529.721 328.749 529.721H307.305C306.72 529.721 306.246 530.197 306.246 530.784C306.246 531.37 306.72 531.847 307.305 531.847Z" fill="#495375"/>
<path d="M310.299 536.097H325.747C326.332 536.097 326.807 535.621 326.807 535.035C326.807 534.448 326.332 533.972 325.747 533.972H310.299C309.714 533.972 309.239 534.448 309.239 535.035C309.239 535.621 309.714 536.097 310.299 536.097Z" fill="#01328E"/>
<path d="M313.86 540.348H322.186C322.771 540.348 323.246 539.872 323.246 539.285C323.246 538.699 322.771 538.223 322.186 538.223H313.86C313.275 538.223 312.8 538.699 312.8 539.285C312.8 539.872 313.275 540.348 313.86 540.348Z" fill="#01328E"/>
<path d="M290.043 470.219C302.379 462.704 316.539 458.725 330.97 458.725H335.812C360.4 458.725 381.25 478.891 381.233 503.545C381.225 514.716 377.129 524.926 370.372 532.765H336.558H302.744H250.497L255.093 516.374C260.494 497.109 272.983 480.616 290.043 470.219Z" fill="#077AED"/>
<path d="M296.953 486.967C305.983 481.467 316.352 478.551 326.926 478.551H330.47C348.479 478.551 363.741 493.318 363.733 511.375C363.724 519.553 360.731 527.035 355.779 532.773H331.021H306.263H268.006L271.372 520.769C275.323 506.657 284.463 494.576 296.953 486.967Z" fill="#0057D8"/>
<path d="M296.41 526.15H336.761C337.397 526.15 337.906 525.632 337.906 525.003C337.906 524.374 337.389 523.855 336.761 523.855H296.41C295.774 523.855 295.266 524.374 295.266 525.003C295.266 525.632 295.774 526.15 296.41 526.15Z" fill="white"/>
<path d="M297.648 521.594H337.999C338.635 521.594 339.144 521.075 339.144 520.446C339.144 519.808 338.627 519.298 337.999 519.298H297.648C297.012 519.298 296.503 519.817 296.503 520.446C296.503 521.084 297.012 521.594 297.648 521.594Z" fill="white"/>
<path d="M298.895 517.045H339.246C339.882 517.045 340.39 516.527 340.39 515.898C340.39 515.26 339.873 514.75 339.246 514.75H298.895C298.259 514.75 297.75 515.269 297.75 515.898C297.742 516.527 298.259 517.045 298.895 517.045Z" fill="white"/>
<path d="M300.132 512.489H340.483C341.119 512.489 341.628 511.97 341.628 511.341C341.628 510.712 341.111 510.193 340.483 510.193H300.132C299.497 510.193 298.988 510.712 298.988 511.341C298.988 511.97 299.505 512.489 300.132 512.489Z" fill="white"/>
<path d="M301.379 507.932H341.73C342.366 507.932 342.875 507.413 342.875 506.784C342.875 506.146 342.358 505.636 341.73 505.636H301.379C300.743 505.636 300.234 506.155 300.234 506.784C300.234 507.413 300.743 507.932 301.379 507.932Z" fill="white"/>
<path d="M412.334 447.29H304.524C306.907 449.679 310.146 451.031 313.521 451.031H402.354C406.017 451.023 409.561 449.696 412.334 447.29Z" fill="#908B91"/>
<path d="M477.011 405.871H499.005H509.137V385.229H502.159C496.173 385.229 490.263 386.547 484.837 389.081L479.673 391.495C476.358 393.042 474.62 396.749 475.552 400.303L477.011 405.871Z" fill="#056CE5"/>
<path d="M512.503 385.229H509.128V405.871H512.503V385.229Z" fill="#FCFFFD"/>
<path d="M514.233 385.229H512.512V405.871H514.233V385.229Z" fill="#FF9717"/>
<path d="M253.744 444.332C253.295 443.881 253.295 443.15 253.744 442.708C254.194 442.258 254.914 442.258 255.364 442.708L264.97 452.34H261.723L253.744 444.332Z" fill="#C7D2D7"/>
<path d="M264.971 452.34L280.538 467.949C280.987 468.4 280.987 469.122 280.538 469.573C280.317 469.794 280.021 469.913 279.724 469.913C279.427 469.913 279.139 469.802 278.91 469.573L261.723 452.34H264.971Z" fill="white"/>
<path d="M311.969 456.719H376.629C377.689 456.719 378.545 455.86 378.545 454.797C378.545 453.735 377.689 452.876 376.629 452.876H311.969C307.348 452.876 303.007 451.074 299.743 447.801C295.757 443.805 290.45 441.603 284.811 441.603H221.915C220.855 441.603 219.999 442.462 219.999 443.524C219.999 444.587 220.855 445.446 221.915 445.446H284.811C289.432 445.446 293.773 447.248 297.038 450.521C301.023 454.508 306.331 456.719 311.969 456.719Z" fill="white"/>
<path d="M493.069 405.871H477.01L477.375 407.614H493.561L493.069 405.871Z" fill="#077AED"/>
<path d="M194.631 441.597L307.697 441.597L307.697 357.747L194.631 357.747L194.631 441.597Z" fill="#F0BF6C"/>
<path d="M191.401 357.746L310.936 357.746L310.936 344.067L191.401 344.067L191.401 357.746Z" fill="#F0BF6C"/>
<path d="M194.631 364.394L307.697 364.394L307.697 357.745L194.631 357.745L194.631 364.394Z" fill="#EBA25D"/>
<path d="M293.596 374.441L294.104 376.6H251.167L235.787 374.441H293.596Z" fill="#CC6164"/>
<path d="M292.824 371.04L293.333 373.208H218.049L202.668 371.04H292.824Z" fill="#CC6164"/>
<path d="M293.596 420.842L294.104 423.002H251.167L235.787 420.842H293.596Z" fill="#CC6164"/>
<path d="M292.824 417.442L293.333 419.601H218.049L202.668 417.442H292.824Z" fill="#CC6164"/>
<path d="M393.078 411.695L447.123 427.89C459.078 431.469 464.462 445.395 458.044 456.124L421.016 518.023L399.98 508.663L430.207 451.031L368.651 438.134C356.746 435.635 349.726 423.223 353.719 411.703H393.078V411.695Z" fill="#0159D7"/>
<path d="M402.719 512.973L404.296 510.576L416.251 515.889L413.436 521.024L400.116 517.275C400.93 515.813 401.795 514.376 402.719 512.973Z" fill="#C15F32"/>
<path d="M406 523.311L407.111 526.151L405.627 525.105C405.042 524.688 404.338 524.467 403.618 524.467H396.64C397.657 522.002 398.81 519.604 400.116 517.275L413.436 521.024L412.631 522.495H406.56C406.136 522.495 405.848 522.92 406 523.311Z" fill="white"/>
<path d="M421.322 535.553H393.087L393.604 533.555C394.401 530.452 395.427 527.426 396.648 524.476H403.626C404.347 524.476 405.051 524.697 405.636 525.113L407.119 526.159L406.009 523.32C405.856 522.928 406.144 522.503 406.568 522.503H412.639L417.125 526.729C419.16 528.641 421.839 529.713 424.628 529.713H427.689C430.682 529.713 433.294 531.387 434.642 533.861L428.817 534.899C426.333 535.332 423.831 535.553 421.322 535.553Z" fill="#FB8F13"/>
<path d="M421.321 535.553C423.831 535.553 426.332 535.332 428.808 534.89L434.633 533.853C435.201 534.899 435.549 536.097 435.6 537.364L426.706 538.172C425.298 538.299 423.891 538.367 422.475 538.367H392.375L393.095 535.553H421.321Z" fill="white"/>
<path d="M404.296 510.576L416.251 515.889L414.954 518.244L401.938 514.18L404.296 510.576Z" fill="#9A4C28"/>
<path d="M405.076 315.815L406.712 306.505C407.263 303.394 409.959 301.116 413.114 301.116H422.423L421.592 305.536C420.99 308.733 421.05 312.023 421.762 315.203L422.169 317.005C422.339 317.77 421.762 318.501 420.982 318.501H419.1C416.692 327.224 406.119 330.947 398.776 325.285L387.228 316.393L393.358 320.686C397.86 323.849 404.118 321.247 405.076 315.815Z" fill="#BE653B"/>
<path d="M423.025 297.936L422.423 301.124H413.114C409.959 301.124 407.255 303.394 406.712 306.514L405.076 315.823C404.118 321.256 397.869 323.857 393.358 320.695L387.228 316.401V297.936H423.025Z" fill="#9A4C28"/>
<path d="M387.219 316.401L398.776 325.294L397.233 329.715L387.219 316.401Z" fill="#422C4F"/>
<path d="M379.139 328.686L387.219 316.401L397.233 329.715L394.613 337.255L379.139 328.686Z" fill="#C15F32"/>
<path d="M415.48 308.469C415.302 309.532 415.624 310.476 416.2 310.569C416.777 310.663 417.379 309.881 417.557 308.809C417.735 307.747 417.413 306.803 416.836 306.709C416.26 306.616 415.658 307.398 415.48 308.469Z" fill="#422C4F"/>
<path d="M418.218 304.72C417.26 304.176 416.183 304.253 415.276 304.856C414.377 305.451 413.546 304.006 414.436 303.411C415.835 302.484 417.616 302.45 419.066 303.275C419.99 303.802 419.151 305.247 418.218 304.72Z" fill="#422C4F"/>
<path d="M415.954 314.973L414.089 315.619C411.359 316.563 408.399 316.656 405.618 315.874L400.963 314.556L402.057 312.372L405.618 313.366C408.408 314.14 411.359 314.055 414.089 313.111L415.954 312.465C417.607 311.895 419.295 311.453 421.016 311.156L421.686 311.037L422.296 313.468L421.016 313.664C419.295 313.961 417.599 314.403 415.954 314.973Z" fill="white"/>
<path d="M400.955 314.556L405.61 315.874C408.399 316.648 411.35 316.563 414.08 315.619L415.946 314.973C417.599 314.403 419.286 313.961 421.008 313.664L422.288 313.468L422.491 314.267C422.839 315.662 422.763 317.124 422.279 318.467L421.236 321.358C419.405 326.424 414.725 329.91 409.358 330.208C406.017 330.395 402.719 329.315 400.124 327.19L396.241 324.01L400.955 314.556Z" fill="#81D3CF"/>
<path opacity="0.3" d="M405.508 313.341L405.076 315.823C404.38 319.802 400.836 322.25 397.224 322.038L402.049 312.372L405.508 313.341Z" fill="#422C4F"/>
<path d="M398.776 318.442L402.303 328.524C402.422 328.856 402.151 329.196 401.795 329.153C399.158 328.839 396.826 327.292 395.495 324.988L391.018 317.209L398.776 318.442Z" fill="#454F6B"/>
<path d="M402.219 303.037L400.277 314.08C399.946 315.968 397.988 317.09 396.199 316.427L377.045 309.319V295.573C377.053 281.452 388.466 270 402.549 270C416.378 270 427.622 281.035 428.028 294.799H412.003C407.187 294.799 403.058 298.276 402.219 303.037Z" fill="#DF4268"/>
<path d="M386.711 290.761C387.949 290.761 389.153 290.089 389.763 288.907C392.264 284.104 397.165 281.12 402.549 281.12C404.448 281.12 405.992 279.573 405.992 277.668C405.992 275.764 404.448 274.217 402.549 274.217C394.596 274.217 387.355 278.621 383.667 285.711C382.785 287.403 383.438 289.485 385.125 290.37C385.634 290.633 386.176 290.761 386.711 290.761Z" fill="white"/>
<path d="M413.08 284.529C414.14 284.529 415.191 284.036 415.861 283.118C416.98 281.579 416.65 279.42 415.115 278.297L414.954 278.178C413.411 277.065 411.257 277.422 410.155 278.978C409.044 280.525 409.4 282.684 410.943 283.789L411.053 283.866C411.664 284.317 412.376 284.529 413.08 284.529Z" fill="white"/>
<path d="M396.198 316.427C397.987 317.09 399.946 315.968 400.277 314.08L402.218 303.037C403.058 298.276 407.187 294.799 412.012 294.799H428.037C428.045 295.054 428.054 295.309 428.054 295.573V297.936H412.859C409.146 297.936 405.975 300.605 405.33 304.27L403.397 315.228C402.71 319.139 398.547 321.375 394.91 319.776L378.868 312.72C377.757 312.227 377.036 311.13 377.036 309.915V309.311L396.198 316.427Z" fill="#A34262"/>
<path d="M397.767 405.795L393.078 385.229L399.81 348.248C400.616 343.844 398.522 339.423 394.613 337.255L379.139 328.686C377.112 327.564 374.603 327.819 372.847 329.332C360.095 340.291 352.117 355.806 350.616 372.579L347.699 405.072C347.377 408.626 350.175 411.695 353.736 411.695H393.087C396.173 411.695 398.462 408.813 397.767 405.795Z" fill="#FF9C1A"/>
<path d="M374.433 344.057L374.306 344.558C372.678 350.841 373.873 357.523 377.57 362.853L393.086 385.229L396.241 367.895L374.433 344.057Z" fill="#F48116"/>
<path d="M396.063 333.081L400.319 335.283L396.063 339.891L394.613 337.255L396.063 333.081Z" fill="#D4E9FF"/>
<path d="M400.319 335.283L401.285 343.147L396.902 338.981L400.319 335.283Z" fill="white"/>
<path d="M376.629 327.989L381.14 324.002L397.233 332.826L395.037 342.152L376.629 327.989Z" fill="white"/>
<path d="M467.498 393.459H479.504C481.742 393.459 483.548 395.278 483.548 397.514V405.038C483.548 407.282 481.734 409.093 479.504 409.093H469.787V406.101C466.862 406.101 464.047 404.936 461.978 402.862L460.52 401.399L467.498 393.459Z" fill="#C15F32"/>
<path d="M467.497 393.459L460.519 401.399L430.546 394.411L434.693 383.291L467.497 393.459Z" fill="#C15F32"/>
<path d="M434.693 383.291L436.151 383.75L436.626 395.831L430.546 394.411L434.693 383.291Z" fill="#9A4C28"/>
<path d="M377.299 340.291C381.25 337.179 386.948 337.741 390.229 341.549L421.322 377.715L426.943 379.61L421.72 393.612L418.769 392.975C414.106 391.963 409.85 389.566 406.56 386.097L376.29 354.208C372.466 350.178 372.932 343.726 377.299 340.291Z" fill="#FF9C1A"/>
<path d="M421.551 394.063L421.72 393.62L426.943 379.618L427.46 378.233C427.757 377.442 428.639 377.034 429.428 377.332L434.566 379.261C435.354 379.559 435.761 380.443 435.465 381.234L435.049 382.356L430.165 395.448L429.563 397.064C429.266 397.854 428.385 398.262 427.596 397.965L422.458 396.035C421.661 395.737 421.254 394.853 421.551 394.063Z" fill="white"/>
<path d="M388.262 343.053C385.371 339.687 380.538 338.786 376.638 340.869C376.85 340.665 377.07 340.469 377.308 340.282C381.259 337.17 386.957 337.732 390.238 341.54L421.33 377.706L426.951 379.601L426.112 381.846L419.804 379.712L388.262 343.053Z" fill="#F48114"/>
<path d="M465.844 406.084C464.928 404.409 462.842 403.797 461.172 404.715L461.164 404.723C461.231 404.681 461.291 404.621 461.367 404.587L469.066 400.362C470.736 399.444 472.822 400.056 473.738 401.731C474.653 403.406 474.043 405.497 472.373 406.415L464.691 410.641C466.183 409.663 466.717 407.682 465.844 406.084Z" fill="#422C4F"/>
<path d="M463.021 411.066C461.808 411.066 460.621 410.419 460.002 409.272C459.129 407.673 459.663 405.701 461.164 404.723L461.172 404.715C462.843 403.797 464.928 404.409 465.844 406.084C466.717 407.682 466.183 409.654 464.683 410.632L464.674 410.641C464.148 410.93 463.58 411.066 463.021 411.066Z" fill="#495375"/>
<path d="M283.896 284.529H409.468V282.047H283.896V284.529Z" fill="url(#paint1_linear_1_60)"/>
<path d="M269.057 289.468H394.63V286.986H269.057V289.468Z" fill="url(#paint2_linear_1_60)"/>
<path d="M371.567 477.318H497.148V474.844H371.567V477.318Z" fill="url(#paint3_linear_1_60)"/>
<path d="M356.729 482.257H482.31V479.783H356.729V482.257Z" fill="url(#paint4_linear_1_60)"/>
<path d="M267.421 343.394H392.993V340.92H267.421V343.394Z" fill="url(#paint5_linear_1_60)"/>
<path d="M213.699 338.497H386.032V336.014H213.699V338.497Z" fill="url(#paint6_linear_1_60)"/>
<path d="M232.946 333.081H405.279V330.599H232.946V333.081Z" fill="url(#paint7_linear_1_60)"/>
<path d="M355.389 401.952H480.97V399.469H355.389V401.952Z" fill="url(#paint8_linear_1_60)"/>
<path d="M301.675 397.047H474.009V394.573H301.675V397.047Z" fill="url(#paint9_linear_1_60)"/>
<path d="M320.922 391.64H493.256V389.157H320.922V391.64Z" fill="url(#paint10_linear_1_60)"/>
<path d="M157.212 476.306H282.793V473.824H157.212V476.306Z" fill="url(#paint11_linear_1_60)"/>
<path d="M140 471.401H312.333V468.927H140V471.401Z" fill="url(#paint12_linear_1_60)"/>
<path d="M159.247 465.985H331.581V463.511H159.247V465.985Z" fill="url(#paint13_linear_1_60)"/>
<g clip-path="url(#clip0_1_60)">
<path d="M102 69.82H161.18C161.18 69.82 165.47 53.1 150.46 60.39C148.74 50.53 143.74 47.28 131.88 58.55C129.44 46.66 108.86 55.24 102 69.82Z" fill="#68BDFC"/>
<path d="M396.5 9.01H425.48C425.48 9.01 427.58 0.819998 420.23 4.39C419.39 -0.440002 416.94 -2.03 411.13 3.49C409.94 -2.33 399.86 1.87 396.5 9.01Z" fill="#68BDFC"/>
<path d="M593.95 38.16H656.35C656.35 38.16 660.87 20.53 645.05 28.21C643.24 17.81 637.96 14.38 625.45 26.27C622.89 13.75 601.19 22.79 593.95 38.16Z" fill="#68BDFC"/>
</g>
<defs>
<linearGradient id="paint0_linear_1_60" x1="466.5" y1="393.5" x2="663" y2="386" gradientUnits="userSpaceOnUse">
<stop stop-color="white"/>
<stop offset="1" stop-color="white" stop-opacity="0"/>
</linearGradient>
<linearGradient id="paint1_linear_1_60" x1="409.472" y1="283.291" x2="283.892" y2="283.291" gradientUnits="userSpaceOnUse">
<stop stop-color="#7FCBD0" stop-opacity="0"/>
<stop offset="0.5443" stop-color="#7FCBD0"/>
<stop offset="0.9884" stop-color="#7FCBD0" stop-opacity="0"/>
</linearGradient>
<linearGradient id="paint2_linear_1_60" x1="394.633" y1="288.23" x2="269.053" y2="288.23" gradientUnits="userSpaceOnUse">
<stop stop-color="#7FCBD0" stop-opacity="0"/>
<stop offset="0.5443" stop-color="#7FCBD0"/>
<stop offset="0.9884" stop-color="#7FCBD0" stop-opacity="0"/>
</linearGradient>
<linearGradient id="paint3_linear_1_60" x1="497.147" y1="476.082" x2="371.567" y2="476.082" gradientUnits="userSpaceOnUse">
<stop stop-color="#7FCBD0" stop-opacity="0"/>
<stop offset="0.5443" stop-color="#7FCBD0"/>
<stop offset="0.9884" stop-color="#7FCBD0" stop-opacity="0"/>
</linearGradient>
<linearGradient id="paint4_linear_1_60" x1="482.309" y1="481.021" x2="356.729" y2="481.021" gradientUnits="userSpaceOnUse">
<stop stop-color="#7FCBD0" stop-opacity="0"/>
<stop offset="0.5443" stop-color="#7FCBD0"/>
<stop offset="0.9884" stop-color="#7FCBD0" stop-opacity="0"/>
</linearGradient>
<linearGradient id="paint5_linear_1_60" x1="392.997" y1="342.155" x2="267.417" y2="342.155" gradientUnits="userSpaceOnUse">
<stop stop-color="#7FCBD0" stop-opacity="0"/>
<stop offset="0.5443" stop-color="#7FCBD0"/>
<stop offset="0.9884" stop-color="#7FCBD0" stop-opacity="0"/>
</linearGradient>
<linearGradient id="paint6_linear_1_60" x1="386.036" y1="337.255" x2="213.702" y2="337.255" gradientUnits="userSpaceOnUse">
<stop stop-color="#7FCBD0" stop-opacity="0"/>
<stop offset="0.5443" stop-color="#7FCBD0"/>
<stop offset="0.9884" stop-color="#7FCBD0" stop-opacity="0"/>
</linearGradient>
<linearGradient id="paint7_linear_1_60" x1="405.281" y1="331.84" x2="232.946" y2="331.84" gradientUnits="userSpaceOnUse">
<stop stop-color="#7FCBD0" stop-opacity="0"/>
<stop offset="0.5443" stop-color="#7FCBD0"/>
<stop offset="0.9884" stop-color="#7FCBD0" stop-opacity="0"/>
</linearGradient>
<linearGradient id="paint8_linear_1_60" x1="480.972" y1="400.711" x2="355.392" y2="400.711" gradientUnits="userSpaceOnUse">
<stop stop-color="#7FCBD0" stop-opacity="0"/>
<stop offset="0.5443" stop-color="#7FCBD0"/>
<stop offset="0.9884" stop-color="#7FCBD0" stop-opacity="0"/>
</linearGradient>
<linearGradient id="paint9_linear_1_60" x1="474.011" y1="395.81" x2="301.676" y2="395.81" gradientUnits="userSpaceOnUse">
<stop stop-color="#7FCBD0" stop-opacity="0"/>
<stop offset="0.5443" stop-color="#7FCBD0"/>
<stop offset="0.9884" stop-color="#7FCBD0" stop-opacity="0"/>
</linearGradient>
<linearGradient id="paint10_linear_1_60" x1="493.255" y1="390.395" x2="320.921" y2="390.395" gradientUnits="userSpaceOnUse">
<stop stop-color="#7FCBD0" stop-opacity="0"/>
<stop offset="0.5443" stop-color="#7FCBD0"/>
<stop offset="0.9884" stop-color="#7FCBD0" stop-opacity="0"/>
</linearGradient>
<linearGradient id="paint11_linear_1_60" x1="282.793" y1="475.065" x2="157.214" y2="475.065" gradientUnits="userSpaceOnUse">
<stop stop-color="#7FCBD0" stop-opacity="0"/>
<stop offset="0.5443" stop-color="#7FCBD0"/>
<stop offset="0.9884" stop-color="#7FCBD0" stop-opacity="0"/>
</linearGradient>
<linearGradient id="paint12_linear_1_60" x1="312.335" y1="470.164" x2="140" y2="470.164" gradientUnits="userSpaceOnUse">
<stop stop-color="#7FCBD0" stop-opacity="0"/>
<stop offset="0.5443" stop-color="#7FCBD0"/>
<stop offset="0.9884" stop-color="#7FCBD0" stop-opacity="0"/>
</linearGradient>
<linearGradient id="paint13_linear_1_60" x1="331.579" y1="464.749" x2="159.244" y2="464.749" gradientUnits="userSpaceOnUse">
<stop stop-color="#7FCBD0" stop-opacity="0"/>
<stop offset="0.5443" stop-color="#7FCBD0"/>
<stop offset="0.9884" stop-color="#7FCBD0" stop-opacity="0"/>
</linearGradient>
<clipPath id="clip0_1_60">
<rect width="554.95" height="69.82" fill="white" transform="translate(102)"/>
</clipPath>
</defs>
</svg>
